<?xml version="1.0" encoding="UTF-8"?><svg xmlns="http://www.w3.org/2000/svg" viewBox="0 0 171.79 172.64"><defs><style>.d{fill:#fff;opacity:.5;stroke:#c4c4c4;stroke-miterlimit:10;}</style></defs><g id="a"/><g id="b"><g id="c"><path class="d" d="M85.89,.5C38.73,.5,.5,38.92,.5,86.32s38.23,85.82,85.39,85.82,85.39-38.42,85.39-85.82S133.06,.5,85.89,.5Zm-25.76,15.76s7.09-4.58,15.9-5.8c8.8-1.22,17.11,1.21,17.11,1.21,7.63,2.53,12.06,4.86,10.85,11.36l-5.51,29.67c-.76,4.1-3.79,8.11-8.19,7.82,0,0-4.8-.23-7.29,.12-2.64,.37-6.29,1.77-6.29,1.77-4.03,1.46-8.05-1.5-9.94-5.15l-13.92-26.97c-3.06-5.93,1.14-10.49,7.27-14.03ZM20.31,97.49c-6.66,.51-9.22-5.13-10.09-12.16,0,0-1.45-8.32,.85-16.9,2.3-8.58,7.78-15.29,7.78-15.29,5.3-6.05,9.17-9.22,14.69-5.57l25.18,16.63c3.48,2.3,5.99,6.65,4.02,10.59,0,0-2.08,4.33-2.73,6.76-.69,2.58-.82,6.48-.82,6.48-.23,4.28-4.52,6.83-8.61,7.15l-30.26,2.32Zm64.63,23.53l-6.21,29.7c-1.37,6.54-7.5,7.42-14.49,6.3,0,0-8.39-.93-15.99-5.53-7.6-4.6-12.51-11.73-12.51-11.73-4.33-6.78-6.29-11.38-1.26-15.66l22.99-19.54c3.18-2.7,8.06-3.9,11.29-.91,0,0,3.58,3.2,5.73,4.51,2.28,1.38,6,2.59,6,2.59,4.05,1.41,5.3,6.24,4.46,10.27Zm.96-25.15c-5.64,0-10.2-4.57-10.2-10.2s4.57-10.2,10.2-10.2,10.2,4.57,10.2,10.2-4.57,10.2-10.2,10.2Zm63.64,30.24s-2.65,8.02-8.73,14.49c-6.08,6.48-14.08,9.8-14.08,9.8-7.53,2.83-12.44,3.79-15.58-2.03l-14.34-26.55c-1.98-3.67-2.14-8.69,1.46-11.23,0,0,3.88-2.83,5.6-4.67,1.82-1.94,3.78-5.33,3.78-5.33,2.22-3.66,7.21-3.89,10.97-2.23l27.76,12.25c6.11,2.7,5.7,8.88,3.15,15.49Zm.89-43.08l-29.86,4.36c-4.12,.6-8.9-.97-10.05-5.22,0,0-1.33-4.61-2.46-6.87-1.2-2.38-3.71-5.38-3.71-5.38-2.68-3.34-1.18-8.11,1.67-11.07l21.03-21.88c4.63-4.81,10.29-2.31,15.63,2.35,0,0,6.62,5.24,10.62,13.18,4,7.94,4.38,16.59,4.38,16.59,.07,8.04-.71,12.98-7.25,13.94Z"/></g></g></svg>