<?xml version="1.0" encoding="UTF-8"?><svg xmlns="http://www.w3.org/2000/svg" viewBox="0 0 200 197.61"><defs><style>.d{stroke:#000;}.d,.e{stroke-miterlimit:10;}.f{fill:#81798c;}.e{fill:none;stroke:#414141;}</style></defs><g id="a"/><g id="b"><g id="c"><path class="d" d="M100,.5C45.05,.5,.5,44.51,.5,98.81s44.55,98.31,99.5,98.31,99.5-44.01,99.5-98.31S154.95,.5,100,.5Zm0,137.61c-21.82,0-39.5-17.68-39.5-39.5s17.68-39.5,39.5-39.5,39.5,17.68,39.5,39.5-17.68,39.5-39.5,39.5Z"/><path class="e" d="M26.5,93.61c0-38.94,31.56-70.5,70.5-70.5"/><path class="e" d="M174.5,99.61c0,41.15-33.35,74.5-74.5,74.5"/><circle class="e" cx="100.25" cy="98.36" r="80.67"/><circle class="e" cx="100.25" cy="98.36" r="85.25"/><circle class="e" cx="100.33" cy="97.59" r="90.83"/><circle class="e" cx="100.45" cy="98.15" r="95.05"/><path class="f" d="M100.41,59.11c-21.73,0-39.34,17.61-39.34,39.34s17.61,39.34,39.34,39.34,39.34-17.61,39.34-39.34-17.61-39.34-39.34-39.34Zm-.39,62.32c-12.48,0-22.59-10.11-22.59-22.59s10.11-22.59,22.59-22.59,22.59,10.11,22.59,22.59-10.11,22.59-22.59,22.59Z"/></g></g></svg>